<svg xmlns="http://www.w3.org/2000/svg" viewBox="0 0 480 300" role="img" aria-labelledby="title desc">
  <title id="title">Repository import</title>
  <desc id="desc">A repository address flows into a structured file scan.</desc>
  <rect x="1" y="1" width="478" height="298" rx="20" fill="#f8fafc" stroke="#e2e8f0"/>
  <rect x="48" y="62" width="384" height="52" rx="10" fill="#fff" stroke="#cbd5e1"/>
  <circle cx="76" cy="88" r="7" fill="#2563eb"/>
  <path d="M96 88h240" stroke="#cbd5e1" stroke-width="8" stroke-linecap="round"/>
  <path d="m350 82 10 6-10 6" fill="none" stroke="#2563eb" stroke-width="2" stroke-linecap="round" stroke-linejoin="round"/>
  <g fill="#fff" stroke="#cbd5e1">
    <rect x="74" y="150" width="148" height="36" rx="8"/><rect x="258" y="150" width="148" height="36" rx="8"/>
    <rect x="74" y="204" width="148" height="36" rx="8"/><rect x="258" y="204" width="148" height="36" rx="8"/>
  </g>
  <g fill="#2563eb"><circle cx="96" cy="168" r="5"/><circle cx="280" cy="168" r="5"/><circle cx="96" cy="222" r="5"/><circle cx="280" cy="222" r="5"/></g>
  <g stroke="#94a3b8" stroke-width="6" stroke-linecap="round"><path d="M110 168h76"/><path d="M294 168h72"/><path d="M110 222h86"/><path d="M294 222h58"/></g>
</svg>
